<?xml version="1.0" encoding="iso-8859-1"?>
<!-- Generator: Adobe Illustrator 22.0.0, SVG Export Plug-In . SVG Version: 6.00 Build 0)  -->
<svg xmlns="http://www.w3.org/2000/svg" xmlns:xlink="http://www.w3.org/1999/xlink" version="1.1" x="0px" y="0px" viewBox="0 0 58 58" style="enable-background:new 0 0 58 58;" xml:space="preserve" width="512" height="512">
<g id="_x33_1-Add_Picture">
	<polygon style="fill:#28384C;" points="0,0 0,58 46,58 58,46 58,0  "/>
	<polygon style="fill:#E7ECED;" points="4,4 4,44 34.18,44 54,37.074 54,4  "/>
	<polygon style="fill:#A17F37;" points="25.889,44 4,44 4,35.125 11,27.25  "/>
	<circle style="fill:#EBBA16;" cx="14" cy="14" r="4"/>
	<polygon style="fill:#E4C05C;" points="39,13.75 19,36.25 25.889,44 34.18,44 54,37.074 54,30.625  "/>
	<circle style="fill:#23A24D;" cx="46" cy="46" r="12"/>
	<polygon style="fill:#FFFFFF;" points="53,44 48,44 48,39 44,39 44,44 39,44 39,48 44,48 44,53 48,53 48,48 53,48  "/>
</g>

</svg>
